<svg version="1.0" xmlns="http://www.w3.org/2000/svg" viewBox="0 0 301.000000 167.000000"
 preserveAspectRatio="xMidYMid meet">
<g transform="translate(0.000000,167.000000) scale(0.100000,-0.100000)" stroke="none">
<path d="M80 1638 c-56 -39 -75 -72 -74 -136 0 -37 6 -66 17 -83 28 -41 826
-812 861 -831 40 -22 103 -22 143 0 18 9 159 139 313 287 155 149 287 270 293
270 7 0 194 -183 415 -407 l404 -407 -249 -3 c-241 -3 -249 -4 -281 -26 -69
-50 -87 -149 -39 -221 48 -72 39 -71 555 -71 l459 0 34 23 c19 12 44 42 57 67
22 44 22 47 22 505 0 427 -2 463 -19 501 -28 62 -73 89 -146 89 -73 0 -118
-27 -146 -89 -16 -36 -19 -69 -19 -291 l0 -250 -470 476 c-479 486 -505 509
-576 509 -55 0 -103 -38 -385 -309 l-292 -281 -116 112 c-64 62 -220 213 -348
337 -128 124 -242 231 -255 238 -39 21 -120 16 -158 -9z"/>
</g>
</svg>
