<svg version="1.0" xmlns="http://www.w3.org/2000/svg" viewBox="0 0 880.000000 572.000000"
 preserveAspectRatio="xMidYMid meet">
<g transform="translate(0.000000,572.000000) scale(0.100000,-0.100000)" stroke="none">
<path d="M7950 5294 c-496 -69 -1415 -219 -1586 -259 -122 -29 -170 -52 -185
-92 -24 -63 26 -125 251 -318 194 -167 240 -209 240 -222 0 -11 -276 -342
-922 -1105 l-488 -577 -157 75 c-87 42 -583 276 -1102 521 l-945 446 -145 -6
c-245 -8 -322 -38 -456 -172 -150 -150 -1795 -1967 -1907 -2107 -177 -220
-183 -522 -15 -743 101 -132 252 -222 413 -245 163 -24 341 33 466 148 65 60
337 357 888 967 315 349 634 699 705 773 l31 33 120 -54 c65 -30 511 -238 989
-462 986 -462 1069 -499 1150 -514 187 -35 407 22 529 137 81 77 378 422 1231
1432 515 609 551 650 572 650 21 0 78 -42 283 -210 236 -192 345 -270 379
-270 18 0 40 14 70 44 l42 43 -10 344 c-6 189 -16 533 -21 764 -12 497 -27
816 -41 867 -13 48 -85 112 -144 127 -24 6 -47 11 -52 10 -4 0 -87 -12 -183
-25z"/>
</g>
</svg>
