<svg version="1.0" xmlns="http://www.w3.org/2000/svg" viewBox="0 0 225.000000 225.000000">
<g transform="translate(0.000000,225.000000) scale(0.100000,-0.100000)" stroke="none">
<path d="M1333 2188 c2 -7 31 -93 63 -190 l59 -178 161 0 162 0 61 183 c34
100 61 185 61 190 0 4 -129 7 -286 7 -225 0 -285 -3 -281 -12z"/>
<path d="M1325 1658 c-155 -146 -213 -354 -170 -602 46 -262 207 -405 457
-406 303 0 478 201 478 547 -1 201 -53 338 -177 460 l-74 73 -219 0 -220 0
-75 -72z m335 -237 c0 -26 4 -30 38 -36 58 -10 63 -15 50 -58 l-11 -37 -53 6
c-63 8 -100 0 -108 -22 -9 -25 10 -42 90 -80 81 -38 107 -69 107 -127 0 -47
-26 -84 -76 -112 -29 -16 -37 -26 -37 -47 0 -26 -3 -28 -40 -28 -37 0 -40 2
-40 29 0 27 -3 29 -50 35 -27 4 -52 11 -55 16 -3 5 -3 26 1 46 6 31 9 35 28
29 44 -14 124 -17 145 -6 28 16 28 56 -1 75 -13 7 -40 20 -62 27 -21 8 -54 27
-73 44 -64 57 -52 150 27 194 32 18 40 28 40 52 0 27 2 29 40 29 38 0 40 -2
40 -29z"/>
<path d="M316 880 c-159 -87 -293 -163 -298 -168 -4 -4 -7 -126 -6 -269 l3
-261 200 132 200 132 309 -178 c213 -122 323 -179 352 -184 61 -9 1015 113
1071 137 107 45 111 197 7 256 -21 13 -56 23 -76 23 -32 0 -459 -51 -544 -65
-27 -5 -32 -11 -43 -55 -16 -61 -41 -95 -93 -121 -50 -25 -133 -27 -179 -4
-36 19 -332 242 -337 254 -1 5 5 18 15 30 l19 23 158 -121 c91 -69 175 -125
196 -131 89 -24 170 43 170 140 0 22 -8 53 -17 67 -23 34 -639 496 -683 511
-18 7 -56 12 -84 12 -47 0 -74 -13 -340 -160z"/>
</g>
</svg>
